<svg id="Layer_1" data-name="Layer 1" xmlns="http://www.w3.org/2000/svg" xmlns:xlink="http://www.w3.org/1999/xlink" viewBox="0 0 573.05 187.91"><defs><style>.cls-1{fill:none;clip-rule:evenodd;}.cls-2{clip-path:url(#clip-path);}.cls-3{fill:#00adee;}.cls-4{clip-path:url(#clip-path-2);}.cls-5{fill:#f05a28;}.cls-6{clip-path:url(#clip-path-3);}.cls-7{fill:#fefefe;}.cls-8{fill:#231f20;}.cls-9{clip-path:url(#clip-path-4);}.cls-10{clip-path:url(#clip-path-5);}.cls-11{clip-path:url(#clip-path-6);}.cls-12{clip-path:url(#clip-path-7);}</style><clipPath id="clip-path" transform="translate(-103.56 -212.05)"><path class="cls-1" d="M250.38,306.33c-7.42-10.53-1.79-21.41-7.83-32-5.85-10.24-17.37-23-29.46-26.47-8.16-2.34-17-7.29-25.28-8.63-9.08-1.47-11.36,3.71-19,6.22-18.43,6.09-32.07,2.83-42.35,21.83-9.54,17.64-14.23,41.09-12.63,60.12,1,11.7,3.67,27.79,14.12,35.3,6.11,4.39,15,4,22.66,4.23,15.81,0.44,21.94,8.49,32.68,17.7,11.74,10.07,30.5,4.1,43.06-3.82,16.13-10.16,27.52-20.93,24.66-38.8-2.19-13.64-1.87-25.63-1.67-39.28"/></clipPath><clipPath id="clip-path-2" transform="translate(-103.56 -212.05)"><path class="cls-1" d="M150.88,254.32c-5.95,11.64-18.06,12.59-24.67,23.11-6.4,10.18-12.49,26.41-10.12,38.29,1.6,8,1.2,18,3.73,25.56,2.77,8.33,8.36,7.55,14,12.59,13.62,12.21,16.86,25.28,38.2,24,19.81-1.18,42.57-9.43,58.62-20.63,9.86-6.88,22.84-17.46,24.77-30.07,1.13-7.37-3.19-14.62-6.42-21.09-6.69-13.42-2.35-22.7,1-36.43,3.61-15-10.05-27.56-22.65-33.93-16.18-8.19-30.77-12.11-45.23-.46"/></clipPath><clipPath id="clip-path-3" transform="translate(-103.56 -212.05)"><path class="cls-1" d="M173,234.76c2.61,7.75,3.91,15.07-20.88,26.7s-27.41,35-27.41,35C115.61,361.26,173,357.14,173,357.14s9.57-1.8,3.48,8.54c0,0,8.27-14.21,8.92,2.15,0,0,5-13,9.35,0,0,0,.87-10.69,6.53-3.88l4.78,3.88c-3.48-17.66,19.58-7.75,30.89-24.09s17-63.25-24.36-84.44c-34-17.43-21.75-32.1-21.75-32.1"/></clipPath><clipPath id="clip-path-4" transform="translate(-103.56 -212.05)"><path class="cls-1" d="M175,227.21s24.53,10.13-23.79,45c0,0-18.27,14.22-13.89,41.87,4.87,30.71,52.13,41.85,52.13,41.85"/></clipPath><clipPath id="clip-path-5" transform="translate(-103.56 -212.05)"><path class="cls-1" d="M187.33,222s-16.73,26.46,33.84,63c0,0,15.37,19.66,11.1,35.87-8,30.32-43.55,35-43.55,35"/></clipPath><clipPath id="clip-path-6" transform="translate(-103.56 -212.05)"><path class="cls-1" d="M189.54,356c-19.6-23.2-22.15-44.82-23.86-59.82S181.53,254,181.53,254s26.12,27.15,27.92,52.13S189.54,356,189.54,356"/></clipPath><clipPath id="clip-path-7" transform="translate(-103.56 -212.05)"><path class="cls-1" d="M181.84,262.06s-7,34.61,7.62,87"/></clipPath></defs><title>EFTGU-LOGO</title><g class="cls-2"><rect class="cls-3" y="16.94" width="157.93" height="170.97"/></g><g class="cls-4"><rect class="cls-5" x="2" y="5.91" width="160" height="170"/></g><g class="cls-6"><rect class="cls-7" x="10.2" y="5.16" width="141.45" height="160.62"/></g><path class="cls-8" d="M185.45,370.33a2.54,2.54,0,0,1-.41,0,2.5,2.5,0,0,1-2.09-2.37,15.87,15.87,0,0,0-.8-5.26,16,16,0,0,0-3.38,4.12l-0.09.15a2.5,2.5,0,0,1-4.31-2.53l0.08-.13c2-3.4,1.58-4.47,1.57-4.48a4.23,4.23,0,0,0-2.5-.21l-0.28,0c-1,.08-24.73,1.57-39.92-14.7-10.32-11.06-14-27.47-11-48.79,0.1-.94,3.05-24.87,28.82-37C174.88,248,172.84,242,170.67,235.55a2.5,2.5,0,0,1,4.74-1.6c3.08,9.15,3.54,17.7-22.19,29.76-23.16,10.86-25.88,32.16-26,33.06-2.79,19.79.47,34.81,9.7,44.71,13,14,34.14,13.24,35.83,13.16,1-.17,5.29-0.64,7.35,2.29a5.05,5.05,0,0,1,.51.91,4.45,4.45,0,0,1,2.84-.28,5.07,5.07,0,0,1,3.42,3.47,5.33,5.33,0,0,1,3.66-1.49,5.11,5.11,0,0,1,3.67,1.82,4.86,4.86,0,0,1,2.54-2c2.07-.65,4.2.28,6.34,2.78l0.34,0.27c1.11-6.8,7.69-8.48,13.63-10,6.2-1.58,13.23-3.38,17.9-10.12,6.26-9,10.31-27.32,5.94-44.75-2.75-11-10.09-26.14-29.39-36-14.8-7.59-23.19-15.77-24.93-24.31a14.32,14.32,0,0,1,2.4-11.61,2.5,2.5,0,0,1,3.84,3.2,9.37,9.37,0,0,0-1.31,7.55c1,4.77,5.73,12.23,22.28,20.72,21,10.75,29,27.3,32,39.28,4.73,18.88.22,38.85-6.68,48.81-5.73,8.28-14.07,10.41-20.77,12.12-8.28,2.11-11.07,3.19-9.72,10.06a2.5,2.5,0,0,1-4,2.43l-4.78-3.87a2.47,2.47,0,0,1-.35-0.35,7,7,0,0,0-1.19-1.18,11,11,0,0,0-.92,3.67,2.5,2.5,0,0,1-4.86.59c-0.95-2.83-1.74-3.74-2-4a10.88,10.88,0,0,0-2.61,4.11A2.5,2.5,0,0,1,185.45,370.33Zm12.43-6.16h0Z" transform="translate(-103.56 -212.05)"/><g class="cls-9"><rect class="cls-7" x="23.07" y="5.16" width="72.81" height="148.7"/></g><path class="cls-8" d="M188.87,358.35A114.37,114.37,0,0,1,164,348.71c-17-9-27.07-20.89-29.19-34.25-4.56-28.78,14-43.62,14.82-44.24,26.43-19.07,29.51-29.72,29-34.38a8.17,8.17,0,0,0-4.65-6.32l1.93-4.61a13.24,13.24,0,0,1,7.68,10.29c1.2,10.22-9.22,23.35-31,39-0.62.49-17,13.68-12.88,39.46,4.54,28.68,49.78,39.7,50.24,39.8Z" transform="translate(-103.56 -212.05)"/><g class="cls-10"><rect class="cls-7" x="71.11" width="68.34" height="153.87"/></g><path class="cls-8" d="M189,358.39l-0.65-5c0.34,0,34-4.84,41.46-33.14,3.65-13.87-8.7-31.08-10.45-33.42-51.51-37.39-34.92-65-34.19-66.16l4.23,2.66c-0.15.25-3.72,6.22-1.63,16.44,2,9.67,9.63,25,34.81,43.23l0.29,0.21,0.22,0.28c0.66,0.84,16.08,20.83,11.55,38-3.45,13.11-12.47,23.65-26.07,30.46A67.83,67.83,0,0,1,189,358.39Z" transform="translate(-103.56 -212.05)"/><g class="cls-11"><rect class="cls-7" x="52" y="31.91" width="64" height="122"/></g><path class="cls-8" d="M189.51,359.79l-1.88-2.22c-20.2-23.91-22.75-46.32-24.43-61.15-1.78-15.71,15.5-42.68,16.24-43.82l1.71-2.65,2.19,2.28a142.9,142.9,0,0,1,13.55,17c9.22,13.52,14.28,25.86,15.07,36.66,1,13.52-4.68,26.87-9.59,35.7a101.79,101.79,0,0,1-10.94,16ZM181.92,258.1c-4.29,7.18-15,26.5-13.76,37.75,1.56,13.74,3.89,34.26,21.36,56.14,5.11-6.62,18.85-26.36,17.44-45.73C205.55,286.67,188.14,265.19,181.92,258.1Z" transform="translate(-103.56 -212.05)"/><g class="cls-12"><rect class="cls-7" x="66.6" y="40.01" width="29.29" height="106.97"/></g><path class="cls-8" d="M187,349.7c-14.6-52.33-8-86.7-7.66-88.14l4.9,1c-0.07.34-6.67,34.73,7.58,85.81Z" transform="translate(-103.56 -212.05)"/><path class="cls-8" d="M298.54,270a0.44,0.44,0,0,1-.45-0.45V231a0.41,0.41,0,0,1,.45-0.45H309a0.44,0.44,0,0,1,.45.45v4.78a0.4,0.4,0,0,1-.45.39h-4.95v10.91H309a0.44,0.44,0,0,1,.45.45v4.78a0.41,0.41,0,0,1-.45.45h-4.95v11.47H309a0.43,0.43,0,0,1,.45.39v4.84a0.41,0.41,0,0,1-.45.45H298.54Z" transform="translate(-103.56 -212.05)"/><path class="cls-8" d="M313.39,269.5V231a0.41,0.41,0,0,1,.45-0.45h11c4.16,0,5.68,2,5.68,5.46v28.4c0,3.49-1.24,5.51-5.62,5.51h-11A0.44,0.44,0,0,1,313.39,269.5Zm6-33.24v28h4.89c0.22,0,.28-0.06.28-0.28V236.55c0-.23-0.06-0.28-0.28-0.28h-4.89Z" transform="translate(-103.56 -212.05)"/><path class="cls-8" d="M341,264.55h4.61c0.23,0,.28-0.06.28-0.28V231a0.44,0.44,0,0,1,.45-0.45h5.12a0.4,0.4,0,0,1,.39.45v33.69c0,3.49-1.24,5.51-5.62,5.51H340.5c-4.5,0-5.79-2-5.79-5.4V231a0.41,0.41,0,0,1,.45-0.45h5.06a0.41,0.41,0,0,1,.45.45v33.24C340.67,264.5,340.73,264.55,341,264.55Z" transform="translate(-103.56 -212.05)"/><path class="cls-8" d="M366.89,236h-4.61c-0.23,0-.28.06-0.28,0.28v28c0,0.23.06,0.28,0.28,0.28h4.61c0.23,0,.28-0.06.28-0.28V259a0.4,0.4,0,0,1,.45-0.39h5.06a0.37,0.37,0,0,1,.45.39v5.68c0,3.49-1.24,5.51-5.62,5.51h-5.68c-4.5,0-5.79-2-5.79-5.4v-29c0-3.49,1.52-5.51,5.68-5.51h5.74c4.16,0,5.68,2,5.68,5.46V241a0.37,0.37,0,0,1-.45.39h-5.06a0.4,0.4,0,0,1-.45-0.39v-4.72C367.17,236,367.11,236,366.89,236Z" transform="translate(-103.56 -212.05)"/><path class="cls-8" d="M386.91,230.58a0.44,0.44,0,0,1,.45.45l6.36,38.47a0.41,0.41,0,0,1-.45.45H388a0.44,0.44,0,0,1-.45-0.45l-1.29-9.39h-4.67l-1.41,9.39a0.41,0.41,0,0,1-.45.45h-5.29a0.41,0.41,0,0,1-.45-0.45L380.67,231a0.44,0.44,0,0,1,.45-0.45h5.79Zm-4.5,23.9h3.09L384,243.63Z" transform="translate(-103.56 -212.05)"/><path class="cls-8" d="M401,236.21v33.3a0.37,0.37,0,0,1-.39.45h-5.12a0.48,0.48,0,0,1-.45-0.45v-33.3h-4.27a0.4,0.4,0,0,1-.45-0.39V231a0.41,0.41,0,0,1,.45-0.45h14.57a0.44,0.44,0,0,1,.45.45v4.78a0.4,0.4,0,0,1-.45.39H401Z" transform="translate(-103.56 -212.05)"/><path class="cls-8" d="M408.79,270a0.44,0.44,0,0,1-.45-0.45V231a0.41,0.41,0,0,1,.45-0.45h5.06a0.41,0.41,0,0,1,.45.45V269.5a0.39,0.39,0,0,1-.45.45h-5.06Z" transform="translate(-103.56 -212.05)"/><path class="cls-8" d="M431,270a0.44,0.44,0,0,1-.45-0.45l-5.29-18.73V269.5a0.39,0.39,0,0,1-.45.45h-5a0.44,0.44,0,0,1-.45-0.45V231a0.41,0.41,0,0,1,.45-0.45h5.06a0.41,0.41,0,0,1,.45.45l5.29,18.73V231a0.41,0.41,0,0,1,.45-0.45H436a0.44,0.44,0,0,1,.45.45V269.5a0.41,0.41,0,0,1-.45.45H431Z" transform="translate(-103.56 -212.05)"/><path class="cls-8" d="M458.07,249.65v15.07c0,3.49-1.24,5.51-5.62,5.51h-5.68c-4.5,0-5.79-2-5.79-5.4v-29c0-3.49,1.52-5.51,5.68-5.51h5.74c4.16,0,5.68,2,5.68,5.46V241a0.37,0.37,0,0,1-.45.39h-5.06a0.4,0.4,0,0,1-.45-0.39v-4.72c0-.23-0.06-0.28-0.28-0.28h-4.61c-0.23,0-.28.06-0.28,0.28v28c0,0.23.06,0.28,0.28,0.28h4.61c0.23,0,.28-0.06.28-0.28v-9.39h-1.91a0.44,0.44,0,0,1-.45-0.45v-4.78a0.4,0.4,0,0,1,.45-0.39h7.42A0.37,0.37,0,0,1,458.07,249.65Z" transform="translate(-103.56 -212.05)"/><path class="cls-8" d="M477.25,252.8v16.7a0.39,0.39,0,0,1-.45.45h-5.06a0.44,0.44,0,0,1-.45-0.45V231a0.41,0.41,0,0,1,.45-0.45H482.2a0.44,0.44,0,0,1,.45.45v4.78a0.4,0.4,0,0,1-.45.39h-4.95v10.91H482a0.44,0.44,0,0,1,.45.45v4.78a0.41,0.41,0,0,1-.45.45h-4.78Z" transform="translate(-103.56 -212.05)"/><path class="cls-8" d="M496.6,270a0.44,0.44,0,0,1-.45-0.45L491.82,254V269.5a0.39,0.39,0,0,1-.45.45h-5.06a0.44,0.44,0,0,1-.45-0.45V231a0.41,0.41,0,0,1,.45-0.45h10.12c4.16,0,5.68,2,5.68,5.46v11.53c0,3.15-1,5.12-4.39,5.46l4.95,16.48a0.37,0.37,0,0,1-.45.45H496.6Zm-4.78-33.69V247.4h4c0.23,0,.28-0.06.28-0.28V236.55c0-.23-0.06-0.28-0.28-0.28h-4Z" transform="translate(-103.56 -212.05)"/><path class="cls-8" d="M505.54,264.84v-29c0-3.49,1.52-5.51,5.68-5.51H517c4.16,0,5.68,2,5.68,5.46v29c0,3.49-1.24,5.51-5.62,5.51h-5.68C506.84,270.24,505.54,268.21,505.54,264.84ZM516.4,236h-4.61c-0.23,0-.28.06-0.28,0.28v28c0,0.23.06,0.28,0.28,0.28h4.61c0.23,0,.28-0.06.28-0.28v-28C516.68,236,516.63,236,516.4,236Z" transform="translate(-103.56 -212.05)"/><path class="cls-8" d="M545,250.16l-3.21,10.91a1,1,0,0,1-.73.9h-4.16a1.12,1.12,0,0,1-.73-0.9L533,250.33V269.5a0.39,0.39,0,0,1-.45.45h-5a0.44,0.44,0,0,1-.45-0.45V231a0.41,0.41,0,0,1,.45-0.45h4.78a0.8,0.8,0,0,1,.79.79l5.85,20,5.85-20a0.82,0.82,0,0,1,.84-0.79h4.72a0.41,0.41,0,0,1,.45.45V269.5a0.44,0.44,0,0,1-.45.45h-5a0.41,0.41,0,0,1-.45-0.45V250.16Z" transform="translate(-103.56 -212.05)"/><path class="cls-8" d="M573.1,236.21v33.3a0.37,0.37,0,0,1-.39.45h-5.12a0.48,0.48,0,0,1-.45-0.45v-33.3h-4.27a0.4,0.4,0,0,1-.45-0.39V231a0.41,0.41,0,0,1,.45-0.45h14.57a0.44,0.44,0,0,1,.45.45v4.78a0.4,0.4,0,0,1-.45.39H573.1Z" transform="translate(-103.56 -212.05)"/><path class="cls-8" d="M592,270a0.44,0.44,0,0,1-.45-0.45V252.8h-5.17v16.7a0.39,0.39,0,0,1-.45.45h-5.06a0.44,0.44,0,0,1-.45-0.45V231a0.41,0.41,0,0,1,.45-0.45h5.06a0.41,0.41,0,0,1,.45.45v16.09h5.17V231a0.41,0.41,0,0,1,.45-0.45h5.06a0.41,0.41,0,0,1,.45.45V269.5a0.39,0.39,0,0,1-.45.45H592Z" transform="translate(-103.56 -212.05)"/><path class="cls-8" d="M603,270a0.44,0.44,0,0,1-.45-0.45V231a0.41,0.41,0,0,1,.45-0.45h10.46a0.44,0.44,0,0,1,.45.45v4.78a0.4,0.4,0,0,1-.45.39h-4.95v10.91h4.95a0.44,0.44,0,0,1,.45.45v4.78a0.41,0.41,0,0,1-.45.45h-4.95v11.47h4.95a0.44,0.44,0,0,1,.45.39v4.84a0.41,0.41,0,0,1-.45.45H603Z" transform="translate(-103.56 -212.05)"/><path class="cls-8" d="M334.88,324v32.66c0,7.56-2.68,11.94-12.19,11.94H310.38c-9.75,0-12.55-4.39-12.55-11.7V294c0-7.56,3.29-11.94,12.31-11.94h12.43c9,0,12.31,4.39,12.31,11.82v11.33a0.81,0.81,0,0,1-1,.85h-11a0.86,0.86,0,0,1-1-.85V295c0-.49-0.12-0.61-0.61-0.61h-10c-0.49,0-.61.12-0.61,0.61v60.69c0,0.49.12,0.61,0.61,0.61h10c0.49,0,.61-0.12.61-0.61V335.29h-4.14a1,1,0,0,1-1-1V324a0.87,0.87,0,0,1,1-.85H333.9A0.81,0.81,0,0,1,334.88,324Z" transform="translate(-103.56 -212.05)"/><path class="cls-8" d="M367.3,368a1,1,0,0,1-1-1l-9.38-33.64V367a0.85,0.85,0,0,1-1,1H345a1,1,0,0,1-1-1V283.62a0.9,0.9,0,0,1,1-1h21.94c9,0,12.31,4.39,12.31,11.82v25c0,6.82-2.19,11.09-9.51,11.82L380.46,367a0.81,0.81,0,0,1-1,1H367.3Zm-10.36-73v24.13h8.78c0.49,0,.61-0.12.61-0.61V295.56c0-.49-0.12-0.61-0.61-0.61h-8.78Z" transform="translate(-103.56 -212.05)"/><path class="cls-8" d="M386.68,356.86V294C386.68,286.42,390,282,399,282h12.43c9,0,12.31,4.39,12.31,11.82v62.76c0,7.56-2.68,11.94-12.19,11.94H399.23C389.48,368.56,386.68,364.18,386.68,356.86Zm23.52-62.52h-10c-0.49,0-.61.12-0.61,0.61v60.69c0,0.49.12,0.61,0.61,0.61h10c0.49,0,.61-0.12.61-0.61V295C410.81,294.47,410.68,294.34,410.2,294.34Z" transform="translate(-103.56 -212.05)"/><path class="cls-8" d="M446.39,356.25h10c0.49,0,.61-0.12.61-0.61v-72a1,1,0,0,1,1-1h11.09a0.87,0.87,0,0,1,.85,1v73c0,7.56-2.68,11.94-12.19,11.94H445.42c-9.75,0-12.55-4.39-12.55-11.7V283.62a0.9,0.9,0,0,1,1-1h11a0.9,0.9,0,0,1,1,1v72C445.78,356.13,445.91,356.25,446.39,356.25Z" transform="translate(-103.56 -212.05)"/><path class="cls-8" d="M505.38,368a1,1,0,0,1-1-1L492.95,326.4V367a0.85,0.85,0,0,1-1,1H481.25a1,1,0,0,1-1-1V283.62a0.9,0.9,0,0,1,1-1h11a0.9,0.9,0,0,1,1,1l11.46,40.58V283.62a0.9,0.9,0,0,1,1-1h10.72a1,1,0,0,1,1,1V367a0.89,0.89,0,0,1-1,1h-11Z" transform="translate(-103.56 -212.05)"/><path class="cls-8" d="M528.29,367V283.62a0.9,0.9,0,0,1,1-1H553c9,0,12.31,4.39,12.31,11.82V356c0,7.56-2.68,11.94-12.19,11.94H529.27A1,1,0,0,1,528.29,367Zm12.92-72v60.69h10.6c0.49,0,.61-0.12.61-0.61V295.56c0-.49-0.12-0.61-0.61-0.61h-10.6Z" transform="translate(-103.56 -212.05)"/><path class="cls-8" d="M607.51,356.25h10c0.49,0,.61-0.12.61-0.61v-72a1,1,0,0,1,1-1h11.09a0.87,0.87,0,0,1,.85,1v73c0,7.56-2.68,11.94-12.19,11.94H606.53c-9.75,0-12.55-4.39-12.55-11.7V283.62a0.9,0.9,0,0,1,1-1h11a0.9,0.9,0,0,1,1,1v72C606.9,356.13,607,356.25,607.51,356.25Z" transform="translate(-103.56 -212.05)"/><path class="cls-8" d="M642.36,368a1,1,0,0,1-1-1V283.62a0.9,0.9,0,0,1,1-1H664.3c9,0,12.31,4.39,12.31,11.82v23.77c0,7.56-2.68,12.55-12.19,12.55H654.31V367a0.85,0.85,0,0,1-1,1h-11Zm11.94-73v23.52h8.78c0.49,0,.61-0.12.61-0.61v-22.3c0-.49-0.12-0.61-0.61-0.61h-8.78Z" transform="translate(-103.56 -212.05)"/></svg>